<svg width="31" height="31" viewBox="0 0 31 31" fill="none" xmlns="http://www.w3.org/2000/svg">
<path d="M11.2046 5.35658C11.0269 5.53401 10.8858 5.74475 10.7896 5.97675C10.6933 6.20875 10.6438 6.45745 10.6438 6.70862C10.6438 6.95979 10.6933 7.20849 10.7896 7.44049C10.8858 7.67249 11.0269 7.88323 11.2046 8.06065L18.6456 15.5016L11.2046 22.9426C10.8461 23.3012 10.6446 23.7876 10.6446 24.2947C10.6446 24.8018 10.8461 25.2881 11.2046 25.6467C11.5632 26.0053 12.0496 26.2067 12.5567 26.2067C13.0638 26.2067 13.5501 26.0053 13.9087 25.6467L22.7113 16.8441C22.8891 16.6667 23.0302 16.4559 23.1264 16.2239C23.2226 15.9919 23.2722 15.7432 23.2722 15.4921C23.2722 15.2409 23.2226 14.9922 23.1264 14.7602C23.0302 14.5282 22.8891 14.3174 22.7113 14.14L13.9087 5.33741C13.18 4.60865 11.9526 4.60865 11.2046 5.35658Z" fill="#A5A5A5"/>
</svg>
