<svg width="26" height="26" viewBox="0 0 26 26" fill="none" xmlns="http://www.w3.org/2000/svg">
<path d="M20.6083 18.3917C20.1009 17.9057 19.6071 17.4058 19.1274 16.8924C18.7244 16.4829 18.4817 16.185 18.4817 16.185L15.4484 14.7366C16.6628 13.3593 17.3331 11.5862 17.3334 9.74999C17.3334 5.56941 13.9317 2.16666 9.75008 2.16666C5.56841 2.16666 2.16675 5.56941 2.16675 9.74999C2.16675 13.9306 5.56841 17.3333 9.75008 17.3333C11.66 17.3333 13.4009 16.6183 14.7367 15.4494L16.1851 18.4827C16.1851 18.4827 16.483 18.7254 16.8925 19.1284C17.3117 19.5217 17.8632 20.0536 18.3918 20.6093L19.863 22.1173L20.5173 22.8172L22.8151 20.5194L22.1152 19.8651C21.7047 19.4621 21.1565 18.9269 20.6083 18.3917V18.3917ZM9.75008 15.1667C6.76333 15.1667 4.33341 12.7367 4.33341 9.74999C4.33341 6.76324 6.76333 4.33332 9.75008 4.33332C12.7368 4.33332 15.1667 6.76324 15.1667 9.74999C15.1667 12.7367 12.7368 15.1667 9.75008 15.1667Z" fill="black"/>
</svg>
