<svg width="31" height="31" viewBox="0 0 31 31" fill="none" xmlns="http://www.w3.org/2000/svg">
<path d="M19.7954 25.6434C19.9731 25.466 20.1142 25.2553 20.2104 25.0233C20.3067 24.7913 20.3562 24.5425 20.3562 24.2914C20.3562 24.0402 20.3067 23.7915 20.2104 23.5595C20.1142 23.3275 19.9731 23.1168 19.7954 22.9393L12.3544 15.4984L19.7954 8.05737C20.1539 7.69879 20.3554 7.21245 20.3554 6.70534C20.3554 6.19823 20.1539 5.71188 19.7954 5.3533C19.4368 4.99472 18.9504 4.79327 18.4433 4.79327C17.9362 4.79327 17.4499 4.99472 17.0913 5.3533L8.28868 14.1559C8.11089 14.3333 7.96984 14.5441 7.87361 14.7761C7.77737 15.0081 7.72784 15.2568 7.72784 15.5079C7.72784 15.7591 7.77737 16.0078 7.87361 16.2398C7.96984 16.4718 8.11089 16.6826 8.28868 16.86L17.0913 25.6626C17.82 26.3914 19.0474 26.3913 19.7954 25.6434Z" fill="#A5A5A5"/>
</svg>
